<svg width="31" height="20" viewBox="0 0 31 20" fill="none" xmlns="http://www.w3.org/2000/svg">
<path d="M1.52639 14.8805C1.18945 15.2173 1.0001 15.6742 1 16.1506V18.1017C1 18.34 1.09464 18.5684 1.2631 18.7369C1.43156 18.9054 1.66004 19 1.89828 19H4.59313C4.83137 19 5.05985 18.9054 5.22831 18.7369C5.39677 18.5684 5.49141 18.34 5.49141 18.1017V17.2034C5.49141 16.9652 5.58605 16.7367 5.75451 16.5683C5.92297 16.3998 6.15145 16.3052 6.38969 16.3052H7.28798C7.52621 16.3052 7.7547 16.2105 7.92316 16.0421C8.09162 15.8736 8.18626 15.6451 8.18626 15.4069V14.5086C8.18626 14.2704 8.2809 14.0419 8.44936 13.8734C8.61782 13.7049 8.8463 13.6103 9.08454 13.6103H9.23904C9.71548 13.6102 10.1724 13.4209 10.5092 13.0839L11.2404 12.3527C12.4889 12.7876 13.848 12.7859 15.0954 12.348C16.3428 11.91 17.4046 11.0617 18.1072 9.94183C18.8098 8.82194 19.1115 7.49675 18.963 6.18307C18.8146 4.86939 18.2247 3.64499 17.2898 2.71016C16.355 1.77534 15.1306 1.18543 13.8169 1.03695C12.5032 0.88847 11.1781 1.1902 10.0582 1.89279C8.93827 2.59538 8.08995 3.65723 7.652 4.90462C7.21405 6.15202 7.21239 7.51112 7.64729 8.75958L1.52639 14.8805Z" stroke="white" stroke-width="1.5" stroke-linecap="round" stroke-linejoin="round"/>
<path d="M14.0251 6.42404C14.2732 6.42404 14.4742 6.22295 14.4742 5.9749C14.4742 5.72684 14.2732 5.52576 14.0251 5.52576C13.777 5.52576 13.576 5.72684 13.576 5.9749C13.576 6.22295 13.777 6.42404 14.0251 6.42404Z" stroke="white" stroke-width="1.5" stroke-linecap="round" stroke-linejoin="round"/>
<path d="M12.5264 14.8805C12.1894 15.2173 12.0001 15.6742 12 16.1506V18.1017C12 18.34 12.0946 18.5684 12.2631 18.7369C12.4316 18.9054 12.66 19 12.8983 19H15.5931C15.8314 19 16.0598 18.9054 16.2283 18.7369C16.3968 18.5684 16.4914 18.34 16.4914 18.1017V17.2034C16.4914 16.9652 16.5861 16.7367 16.7545 16.5683C16.923 16.3998 17.1515 16.3052 17.3897 16.3052H18.288C18.5262 16.3052 18.7547 16.2105 18.9232 16.0421C19.0916 15.8736 19.1863 15.6451 19.1863 15.4069V14.5086C19.1863 14.2704 19.2809 14.0419 19.4494 13.8734C19.6178 13.7049 19.8463 13.6103 20.0845 13.6103H20.239C20.7155 13.6102 21.1724 13.4209 21.5092 13.0839L22.2404 12.3527C23.4889 12.7876 24.848 12.7859 26.0954 12.348C27.3428 11.91 28.4046 11.0617 29.1072 9.94183C29.8098 8.82194 30.1115 7.49675 29.963 6.18307C29.8146 4.86939 29.2247 3.64499 28.2898 2.71016C27.355 1.77534 26.1306 1.18543 24.8169 1.03695C23.5032 0.88847 22.1781 1.1902 21.0582 1.89279C19.9383 2.59538 19.09 3.65723 18.652 4.90462C18.2141 6.15202 18.2124 7.51112 18.6473 8.75958L12.5264 14.8805Z" stroke="white" stroke-width="1.5" stroke-linecap="round" stroke-linejoin="round"/>
<path d="M25.0251 6.42404C25.2732 6.42404 25.4742 6.22295 25.4742 5.9749C25.4742 5.72684 25.2732 5.52576 25.0251 5.52576C24.777 5.52576 24.576 5.72684 24.576 5.9749C24.576 6.22295 24.777 6.42404 25.0251 6.42404Z" stroke="white" stroke-width="1.5" stroke-linecap="round" stroke-linejoin="round"/>
</svg>
