<svg width="19" height="18" viewBox="0 0 19 18" fill="none" xmlns="http://www.w3.org/2000/svg">
<path d="M1 4.42857L8.45167 10.44C8.76207 10.6906 9.12685 10.8243 9.5 10.8243C9.87315 10.8243 10.2379 10.6906 10.5483 10.44L18 4.42857M2.88889 17H16.1111C16.6121 17 17.0925 16.7592 17.4468 16.3305C17.801 15.9019 18 15.3205 18 14.7143V3.28571C18 2.67951 17.801 2.09812 17.4468 1.66947C17.0925 1.24082 16.6121 1 16.1111 1H2.88889C2.38792 1 1.90748 1.24082 1.55324 1.66947C1.19901 2.09812 1 2.67951 1 3.28571V14.7143C1 15.3205 1.19901 15.9019 1.55324 16.3305C1.90748 16.7592 2.38792 17 2.88889 17Z" stroke="white" stroke-width="1.5" stroke-linecap="round" stroke-linejoin="round"/>
</svg>
